<svg xmlns="http://www.w3.org/2000/svg"  viewBox="0 0 100 100" width="400px" height="400px" fill-rule="evenodd" clip-rule="evenodd" baseProfile="basic" fill="#444445"><path fill="#444445" d="M7.866,69.149L50.875,39.5l41.773-9.861c-3.548-3.914-12.13-5.155-18.378-5.547	c-2.771-0.178-5.532-0.663-8.212-1.444c-1.211-0.337-2.422-0.764-3.605-1.222c-5.254-2.085-13.921-4.09-23.274-0.262	c-0.298,0.131-0.588,0.233-0.859,0.375c-0.288,0.104-0.58,0.252-0.877,0.383c-9.146,4.257-13.578,11.984-15.617,17.258	c-0.466,1.179-0.976,2.358-1.552,3.476c-1.243,2.496-2.746,4.844-4.497,6.999c-3.965,4.833-8.866,11.965-8.43,17.218	c0.07,0.925,0.305,1.797,0.75,2.578"/><path fill="#3070b7" fill-rule="evenodd" d="M93.895,31.553c-2.697-6.038-25.605-7.244-49.36,3.137	C20.78,45.07,5.584,62.588,7.866,69.149c3.212,9.239,26.353,7.814,50.108-2.568C81.729,56.199,97.884,40.486,93.895,31.553z M56.735,61.362c-11.94,5.219-22.97,6.351-24.64,2.528c-1.67-3.821,6.654-11.146,18.594-16.365c11.94-5.219,22.97-6.349,24.64-2.528	C76.999,48.817,68.675,56.142,56.735,61.362z" clip-rule="evenodd"/><path fill="#1f212b" d="M7.499,68.5c-0.488,0-0.916-0.358-0.988-0.855c-0.908-6.227,4.062-13.224,8.492-18.624	c1.684-2.072,3.157-4.364,4.375-6.811c0.504-0.979,0.999-2.086,1.519-3.398c2.212-5.721,6.808-13.46,16.125-17.796l0.281-0.128	c0.207-0.096,0.411-0.188,0.613-0.266c0.187-0.094,0.379-0.174,0.577-0.255l0.283-0.119c9.531-3.9,18.334-2.019,24.045,0.247	c1.308,0.508,2.457,0.897,3.504,1.188c2.62,0.764,5.31,1.237,8.009,1.41l0.902,0.056c6.449,0.393,14.475,0.881,18.443,6.257	c0.328,0.444,0.233,1.07-0.211,1.398c-0.445,0.328-1.07,0.233-1.398-0.211c-3.413-4.624-10.922-5.081-16.956-5.448l-0.907-0.056	c-2.846-0.183-5.682-0.682-8.43-1.482c-1.1-0.306-2.31-0.716-3.687-1.25c-5.376-2.133-13.641-3.909-22.533-0.268l-0.308,0.129	c-0.159,0.065-0.315,0.127-0.465,0.206l-0.124,0.055c-0.172,0.063-0.346,0.144-0.521,0.225l-0.293,0.133	c-8.695,4.047-13.006,11.318-15.088,16.703c-0.547,1.382-1.068,2.548-1.597,3.574c-1.277,2.564-2.83,4.981-4.609,7.172	c-4.174,5.086-8.858,11.618-8.063,17.069c0.08,0.547-0.299,1.055-0.845,1.134C7.596,68.497,7.547,68.5,7.499,68.5z"/><path fill="#1f212b" d="M22.549,76.309c-4.182,0-7.756-0.572-10.466-1.757c-2.658-1.162-4.396-2.869-5.162-5.074	C4.279,61.88,20.933,43.912,44.135,33.774c22.955-10.031,47.457-9.825,50.673-2.629l0,0c0.985,2.207,0.922,4.78-0.188,7.647	c-3.642,9.405-17.868,20.673-36.245,28.704C45.313,73.206,32.285,76.309,22.549,76.309z M78.626,27.967	c-8.898,0-20.986,2.088-33.69,7.64C20.616,46.232,6.962,63.506,8.81,68.821c0.576,1.657,1.947,2.969,4.074,3.898	c8.404,3.672,26.78,0.771,44.69-7.055c17.638-7.709,31.775-18.798,35.181-27.594c0.91-2.353,0.986-4.408,0.227-6.109	C91.937,29.621,86.544,27.967,78.626,27.967z"/><path fill="#1f212b" d="M85.493,44.111c-0.12,0-0.24-0.043-0.336-0.129c-0.204-0.186-0.22-0.502-0.035-0.707	c1.347-1.486,2.744-3.092,3.741-4.931c1.146-2.112,2.012-4.117,0.047-5.418c-2.379-1.576-5.832-1.533-8.873-1.495	c-0.458,0.006-0.907,0.012-1.341,0.012c-3.695,0-7.686,0.376-11.858,1.118c-0.277,0.042-0.532-0.133-0.58-0.404	c-0.049-0.272,0.133-0.532,0.404-0.58c4.231-0.752,8.28-1.134,12.034-1.134c0.43,0,0.874-0.006,1.328-0.012	c3.189-0.04,6.802-0.086,9.438,1.661c2.891,1.915,1.191,5.046,0.279,6.729c-1.05,1.937-2.492,3.594-3.878,5.126	C85.766,44.056,85.629,44.111,85.493,44.111z"/><path fill="#1f212b" d="M61.708,33.625c-0.227,0-0.432-0.154-0.486-0.384c-0.064-0.269,0.102-0.538,0.37-0.603	c0.896-0.215,1.791-0.415,2.682-0.601c0.266-0.059,0.534,0.116,0.591,0.388c0.057,0.27-0.117,0.535-0.388,0.591	c-0.881,0.184-1.766,0.382-2.652,0.595C61.785,33.621,61.746,33.625,61.708,33.625z"/><path fill="#1f212b" d="M14.375,70.817c-0.06,0-0.12-0.011-0.18-0.033c-1.453-0.56-2.407-1.365-2.836-2.395	c-0.983-2.36,1.37-5.812,2.114-6.813c3.376-4.538,7.429-7.899,11.993-11.513c6.031-4.773,12.919-8.867,20.47-12.166	c2.807-1.227,5.72-2.331,8.659-3.284c0.267-0.085,0.545,0.061,0.63,0.321c0.085,0.263-0.059,0.545-0.321,0.63	c-2.908,0.943-5.791,2.036-8.567,3.249c-7.473,3.266-14.285,7.313-20.249,12.033c-4.508,3.569-8.509,6.886-11.812,11.327	c-1.308,1.758-2.614,4.341-1.993,5.831c0.319,0.768,1.083,1.389,2.271,1.846c0.258,0.1,0.386,0.389,0.287,0.646	C14.766,70.695,14.576,70.817,14.375,70.817z"/><path fill="#1f212b" d="M38.066,66.653c-3.448,0-5.696-0.883-6.43-2.563c-1.808-4.135,6.474-11.612,18.852-17.023	c5.82-2.544,11.616-4.211,16.321-4.693c4.888-0.504,8.075,0.359,8.978,2.423c1.807,4.136-6.475,11.613-18.853,17.023l0,0	c-5.82,2.545-11.616,4.212-16.32,4.694C39.705,66.607,38.854,66.653,38.066,66.653z M69.387,43.231	c-0.761,0-1.588,0.045-2.476,0.136c-4.604,0.473-10.295,2.111-16.022,4.615c-12.656,5.533-19.699,12.589-18.336,15.707	c0.703,1.609,3.604,2.276,7.959,1.83c4.604-0.473,10.294-2.112,16.022-4.616l0,0c12.656-5.531,19.699-12.588,18.337-15.707	C74.312,43.915,72.357,43.231,69.387,43.231z"/><path fill="#1f212b" d="M26.75,39.5c-0.062,0-0.125-0.012-0.186-0.036c-0.257-0.103-0.381-0.394-0.278-0.649	c0.511-1.277,0.767-1.918,1.348-2.832c0.147-0.233,0.458-0.302,0.689-0.154c0.233,0.147,0.303,0.457,0.154,0.689	c-0.53,0.836-0.775,1.448-1.264,2.668C27.136,39.381,26.948,39.5,26.75,39.5z"/><path fill="#1f212b" d="M29.25,34.693c-0.093,0-0.187-0.025-0.27-0.079c-0.232-0.149-0.301-0.458-0.151-0.69	c0.965-1.505,2.091-2.903,3.439-4.274c3.438-3.492,8.506-6.149,12.912-6.77c0.271-0.037,0.526,0.151,0.564,0.426	c0.038,0.273-0.152,0.526-0.426,0.564c-4.202,0.591-9.045,3.135-12.338,6.48c-1.318,1.34-2.37,2.646-3.311,4.112	C29.575,34.612,29.414,34.693,29.25,34.693z"/><path fill="#1f212b" d="M22.41,70.776c-0.038,0-2.424,0.017-3.865-0.111c-0.284-0.023-0.519,0.178-0.543,0.453	s0.179,0.519,0.453,0.543c1.508,0.135,3.938,0.139,3.955,0.139c0.283,0,0.512-0.229,0.512-0.512	C22.922,71.005,22.693,70.776,22.41,70.776z"/></svg>